HIERARCHY
ROOT root
{
	OFFSET 0.000000 0.000000 0.000000
	CHANNELS 6 Xposition Yposition Zposition Zrotation Yrotation Xrotation
	JOINT lhip
	{
		OFFSET 0.058581 -0.082280 -0.017664
		CHANNELS 3 Zrotation Yrotation Xrotation
		JOINT lknee
		{
			OFFSET 0.043451 -0.386469 0.008037
			CHANNELS 3 Zrotation Yrotation Xrotation
			JOINT lankle
			{
				OFFSET -0.014790 -0.426874 -0.037428
				CHANNELS 3 Zrotation Yrotation Xrotation
				JOINT ltoe
				{
					OFFSET 0.041054 -0.060286 0.122042
					CHANNELS 3 Zrotation Yrotation Xrotation
					End Site
					{
						OFFSET 0.000000 0.000000 0.000000
					}
				}
			}
		}
	}
	JOINT rhip
	{
		OFFSET -0.060310 -0.090513 -0.013543
		CHANNELS 3 Zrotation Yrotation Xrotation
		JOINT rknee
		{
			OFFSET -0.043257 -0.383688 -0.004843
			CHANNELS 3 Zrotation Yrotation Xrotation
			JOINT rankle
			{
				OFFSET 0.019056 -0.420046 -0.034562
				CHANNELS 3 Zrotation Yrotation Xrotation
				JOINT rtoe
				{
					OFFSET -0.034840 -0.062106 0.130323
					CHANNELS 3 Zrotation Yrotation Xrotation
					End Site
					{
						OFFSET 0.000000 0.000000 0.000000
					}
				}
			}
		}
	}
	JOINT lowerback
	{
		OFFSET 0.004439 0.124404 -0.038385
		CHANNELS 3 Zrotation Yrotation Xrotation
		JOINT upperback
		{
			OFFSET 0.004488 0.137956 0.026820
			CHANNELS 3 Zrotation Yrotation Xrotation
			JOINT chest
			{
				OFFSET -0.002265 0.056032 0.002855
				CHANNELS 3 Zrotation Yrotation Xrotation
				JOINT lowerneck
				{
					OFFSET -0.013390 0.211636 -0.033468
					CHANNELS 3 Zrotation Yrotation Xrotation
					JOINT upperneck
					{
						OFFSET 0.010113 0.088937 0.050410
						CHANNELS 3 Zrotation Yrotation Xrotation
						End Site
						{
							OFFSET 0.000000 0.000000 0.000000
						}
					}
				}
				JOINT lclavicle
				{
					OFFSET 0.071702 0.114000 -0.018898
					CHANNELS 3 Zrotation Yrotation Xrotation
					JOINT lshoulder
					{
						OFFSET 0.122921 0.045205 -0.019046
						CHANNELS 3 Zrotation Yrotation Xrotation
						JOINT lelbow
						{
							OFFSET 0.255332 -0.015649 -0.022946
							CHANNELS 3 Zrotation Yrotation Xrotation
							JOINT lwrist
							{
								OFFSET 0.265709 0.012698 -0.007375
								CHANNELS 3 Zrotation Yrotation Xrotation
								End Site
								{
									OFFSET 0.000000 0.000000 0.000000
								}
							}
						}
					}
				}
				JOINT rclavicle
				{
					OFFSET -0.082954 0.112472 -0.023707
					CHANNELS 3 Zrotation Yrotation Xrotation
					JOINT rshoulder
					{
						OFFSET -0.113228 0.046853 -0.008472
						CHANNELS 3 Zrotation Yrotation Xrotation
						JOINT relbow
						{
							OFFSET -0.260127 -0.014369 -0.031269
							CHANNELS 3 Zrotation Yrotation Xrotation
							JOINT rwrist
							{
								OFFSET -0.269108 0.006794 -0.006027
								CHANNELS 3 Zrotation Yrotation Xrotation
								End Site
								{
									OFFSET 0.000000 0.000000 0.000000
								}
							}
						}
					}
				}
			}
		}
	}
}
MOTION
Frames: 14
Frame Time: 0.033333
0.012967 -0.106025 0.976984 171.677835 -4.162256 88.666929 -5.190720 -1.802970 -5.486881 -7.214866 1.491926 2.890185 9.970050 11.758897 -10.887728 0.000000 -0.000000 0.000000 -8.269049 -2.017830 -7.413516 1.127517 -3.834938 60.734072 1.471210 -9.355168 -6.750102 0.000000 -0.000000 0.000000 -4.728398 2.578497 1.894125 -1.240419 0.605730 0.864997 -3.839073 0.303513 3.016793 4.591527 4.658533 3.899513 -1.767047 1.791129 14.459439 -24.639425 2.036383 0.771069 -54.897226 -7.689635 14.553336 9.307594 -29.941214 11.836359 5.872818 -5.186724 -3.331062 25.880738 4.257082 4.055552 61.370656 10.126825 21.928495 -3.818029 22.142101 10.358485 3.628625 7.300055 -2.051788 
0.009965 -0.087427 0.978788 172.844843 -3.715415 87.839967 -5.294656 -1.005962 -3.135842 -7.116237 0.044931 2.563409 9.316579 11.417524 -12.225248 0.000000 -0.000000 0.000000 -7.503964 -2.050940 -9.939778 0.238467 -4.947662 61.449749 0.986530 -9.658455 -9.250684 0.000000 -0.000000 0.000000 -4.268727 1.412406 2.783780 -1.245105 0.170862 0.438575 -3.772774 0.002471 3.332744 4.730278 5.083313 3.973735 -1.842664 1.683567 14.891968 -24.228289 1.020064 0.648795 -55.115112 -8.807082 14.470656 9.770865 -29.359005 11.208558 6.210917 -5.271462 -3.629299 25.753566 4.703149 3.748906 61.469528 10.254462 21.649091 -4.674963 22.202237 9.897926 3.439075 7.342793 -2.792513 
0.006984 -0.068988 0.980473 173.975092 -3.374273 87.045139 -5.469093 -0.206152 -0.757388 -6.845433 -1.425629 2.135441 8.371977 11.110899 -13.373491 0.000000 -0.000000 0.000000 -6.810439 -1.694932 -12.107963 -0.346176 -5.635066 59.907080 1.347545 -9.922640 -13.139213 0.000000 -0.000000 0.000000 -3.818155 0.320099 3.525800 -1.343130 -0.275604 0.327313 -3.693737 -0.208797 3.438338 4.874547 5.680843 4.152352 -1.771442 1.423428 15.065992 -23.803045 0.145415 0.540017 -55.379142 -9.874671 14.365232 10.290844 -29.253578 10.152671 6.271919 -5.034146 -4.104730 25.498314 5.103315 3.608869 61.562682 10.292759 21.296944 -5.160861 22.628393 9.629866 3.425635 7.259184 -3.408247 
0.003445 -0.043102 0.981793 175.545995 -2.898326 86.233420 -5.456440 0.670630 2.077163 -6.543743 -3.168195 1.878566 7.494145 10.629401 -14.995645 0.000000 -0.000000 0.000000 -5.745174 -0.693024 -15.532004 -1.266727 -6.508938 55.345877 1.821477 -10.675025 -16.896715 0.000000 -0.000000 0.000000 -3.289540 -1.249807 4.550968 -1.448148 -0.571874 0.121162 -3.474590 -0.655201 3.540458 4.975168 6.138854 4.170243 -1.714844 1.421151 14.927958 -23.561466 -0.646222 0.533280 -55.576206 -11.636436 14.213853 11.251607 -30.358691 8.133956 6.252484 -5.104130 -5.556396 25.182335 5.501136 3.508812 61.480647 10.318881 21.249315 -5.643458 23.427698 9.424738 3.439921 7.422537 -3.920812 
0.002673 -0.034725 0.981816 176.017266 -2.738553 86.127414 -5.367048 0.858523 2.778959 -6.479817 -3.563616 1.914652 7.231361 10.489951 -15.536894 0.000000 -0.000000 0.000000 -5.400815 -0.353460 -16.706629 -1.504421 -6.647576 53.226132 1.794235 -10.820972 -17.583695 0.000000 -0.000000 0.000000 -3.120423 -1.694247 4.748817 -1.457749 -0.635130 0.079965 -3.426778 -0.807793 3.592563 5.053217 6.294634 3.989576 -1.793711 1.379615 14.797827 -23.573099 -0.767565 0.445840 -55.555909 -12.226144 14.247445 11.596288 -30.975893 7.426122 6.056397 -5.221134 -6.222892 25.182909 5.494000 3.481910 61.388806 10.371413 21.373539 -5.823997 23.651953 9.447537 3.540592 7.424100 -3.977825 
0.001462 -0.018255 0.981378 176.893958 -2.501871 85.892627 -5.180623 1.354321 4.068637 -6.367443 -4.415959 2.224463 6.752274 10.070375 -16.481046 0.000000 -0.000000 0.000000 -4.813681 -0.002337 -18.828279 -1.829553 -6.568206 48.448926 2.046071 -10.506852 -18.625888 0.000000 -0.000000 0.000000 -2.804111 -2.427695 5.190565 -1.561318 -0.827199 0.106036 -3.301337 -0.974200 3.481796 5.007424 6.537385 3.976750 -1.625092 1.308812 14.521379 -23.460512 -1.111758 0.433067 -55.610020 -13.269121 14.314682 12.192031 -32.499313 6.024566 6.201973 -5.171996 -7.751950 25.037021 5.541500 3.563844 61.340300 10.377117 21.356528 -6.066600 24.004995 9.379034 3.555786 7.207657 -4.421307 
0.000656 -0.001046 0.980300 177.743333 -2.321104 85.599007 -4.962812 1.886538 5.389401 -6.401945 -4.721998 2.533074 6.090444 9.709841 -18.059015 0.000000 -0.000000 0.000000 -4.326997 0.274626 -20.408780 -1.899464 -6.163626 43.104513 2.356689 -9.784756 -18.733133 0.000000 -0.000000 0.000000 -2.383741 -2.918600 5.355290 -1.699768 -0.944304 0.426290 -3.283464 -1.179954 3.458331 4.920925 6.613673 3.868379 -1.525342 1.178700 14.361810 -23.282006 -1.434107 0.416667 -55.817605 -14.350710 14.464755 12.820579 -34.097951 4.667514 6.107412 -5.486295 -9.213619 24.911786 5.454676 3.676981 61.322967 10.444269 21.264520 -6.475674 23.951284 9.123471 3.749941 7.240060 -4.498147 
0.000310 0.016552 0.978905 178.653594 -2.275774 85.456220 -4.799455 2.191289 6.408326 -6.489400 -5.263298 3.210621 5.813349 9.372389 -19.030262 0.000000 -0.000000 0.000000 -4.024462 0.311421 -21.659014 -1.754261 -5.448237 37.284156 2.771730 -8.692608 -17.491994 0.000000 -0.000000 0.000000 -2.061303 -3.213347 5.240816 -1.818289 -1.095321 0.817021 -3.286817 -1.384712 3.337929 4.687475 6.380529 4.073500 -1.272084 1.007953 14.116367 -23.153885 -1.740117 0.527106 -56.070606 -15.354001 14.672336 13.500148 -35.704387 3.516552 6.096753 -5.541026 -10.508253 24.784683 5.288855 3.942721 61.245889 10.365868 21.100295 -6.780199 23.749555 8.903207 3.836169 6.997423 -4.695696 
0.000240 0.034821 0.976856 179.550384 -2.305453 85.407220 -4.717746 2.404888 7.382956 -6.518824 -5.735006 3.817007 5.906309 9.136767 -19.898464 0.000000 -0.000000 0.000000 -3.939913 0.169973 -22.534609 -1.464198 -4.563570 31.179551 3.529445 -6.895235 -13.971864 0.000000 -0.000000 0.000000 -1.673455 -3.438361 4.835676 -2.016043 -1.246817 1.334853 -3.302440 -1.477810 3.220023 4.231552 5.948979 4.266449 -1.037010 1.050521 13.864190 -23.028786 -1.975662 0.556304 -56.473605 -16.314830 14.931010 14.028538 -37.075517 2.478677 5.859294 -5.480599 -11.673942 24.485321 5.012683 4.282222 61.181451 10.307094 20.824887 -6.933187 23.378023 8.594741 4.176370 6.796446 -4.769223 
0.001103 0.053725 0.974351 -179.605424 -2.269328 85.543196 -4.422098 2.623530 8.124670 -6.713106 -6.239336 4.509313 6.015522 9.067396 -20.860082 0.000000 -0.000000 0.000000 -3.795640 -0.180627 -23.075464 -1.242908 -3.906744 24.826921 4.854860 -5.251660 -11.406534 0.000000 -0.000000 0.000000 -1.199924 -3.564938 4.333829 -2.180378 -1.394971 1.594338 -3.293981 -1.541429 3.064684 3.850749 5.556706 4.598916 -0.903315 1.061318 13.849250 -22.996689 -1.999984 0.578699 -56.920553 -17.127651 15.270872 14.442619 -38.369082 1.579215 5.580278 -5.734181 -12.909977 24.205883 4.612585 4.518324 61.006496 10.005846 20.579301 -7.035593 22.789110 8.500189 4.553424 6.829243 -4.519195 
0.002573 0.073564 0.971439 -178.738302 -2.169134 85.534589 -3.972321 2.852230 9.050626 -6.861655 -6.623603 5.312561 5.882955 8.761440 -22.027226 0.000000 -0.000000 0.000000 -3.698117 -0.339112 -22.838560 -1.230694 -3.604479 18.450282 5.874920 -4.134859 -10.581494 0.000000 -0.000000 0.000000 -0.740896 -3.671190 3.932581 -2.297463 -1.503837 1.795562 -3.200173 -1.655611 3.036884 3.584718 5.329529 4.700408 -0.839198 1.055025 13.835447 -22.955013 -1.858554 0.513979 -57.613405 -17.851104 15.544753 14.882931 -39.721051 0.948967 5.140369 -6.017628 -13.920436 23.826359 4.175874 4.687723 60.630538 9.790411 20.074203 -6.942661 22.114463 8.683251 5.458566 6.726991 -4.333829 
0.004463 0.093988 0.968112 -177.772862 -2.254540 85.933811 -3.842574 2.804836 9.533756 -6.823264 -7.237775 6.132526 5.885603 8.756412 -22.992944 0.000000 -0.000000 0.000000 -3.897181 -0.599203 -22.824561 -1.265211 -3.568206 13.033110 6.549615 -4.062250 -9.708346 0.000000 -0.000000 0.000000 -0.441853 -3.850298 3.129285 -2.450726 -1.604575 1.784928 -3.161058 -1.832740 3.072639 3.361651 5.011397 4.641892 -0.747522 1.246104 13.976694 -22.956570 -1.470550 0.632041 -58.192439 -18.495500 15.789766 15.427800 -41.167147 0.160906 4.705724 -6.214692 -15.348529 23.694911 3.631342 4.943178 59.962647 9.695357 19.662871 -6.896216 21.159260 8.647616 6.105979 6.676100 -3.873491 
0.006902 0.115583 0.964858 -176.546924 -2.294475 86.105615 -3.486405 2.833095 10.378130 -6.842293 -8.098588 6.884245 5.721810 8.560606 -23.874773 0.000000 -0.000000 0.000000 -4.166434 -1.036506 -22.533531 -1.150758 -4.135617 9.465502 6.876774 -4.597274 -9.990183 0.000000 -0.000000 0.000000 -0.209470 -4.188218 2.595442 -2.546036 -1.730438 1.790752 -3.001817 -1.943254 2.992728 3.002380 4.536963 4.564499 -0.667234 1.424130 13.949343 -23.013835 -1.165346 0.884629 -58.732652 -18.917791 16.023131 15.883887 -42.673167 -0.276575 4.510228 -6.588536 -16.824903 23.458250 3.311421 5.018462 59.191080 9.283708 18.997278 -7.034545 20.137351 8.680737 7.013144 6.335237 -2.758699 
0.009865 0.137976 0.961598 -175.331582 -2.345270 86.241802 -3.078344 2.872419 11.416672 -6.826017 -9.109761 7.405858 5.641654 8.695996 -24.543353 0.000000 -0.000000 0.000000 -4.458072 -1.121053 -22.597821 -1.217855 -4.118913 9.465506 7.064145 -5.110889 -10.582332 0.000000 -0.000000 0.000000 -0.109009 -4.579317 2.072766 -2.507946 -1.733222 1.712704 -2.951142 -2.107736 3.081025 2.953925 4.171792 4.148928 -0.756226 1.350986 14.203623 -23.027259 -0.824208 1.012711 -59.062081 -19.209756 16.400513 16.105545 -44.264430 -0.556781 4.600790 -6.707380 -18.256819 23.335013 2.997801 4.913055 58.176910 8.980752 18.512986 -6.957034 19.008101 8.464951 8.159744 5.979165 -2.395324 
